<svg width="120" height="135" viewBox="0 0 120 135" fill="none" xmlns="http://www.w3.org/2000/svg">
<path d="M65 66.5051L65.5 66.2164C67.5969 65.0056 69.2357 63.1367 70.1623 60.8996C71.0888 58.6625 71.2514 56.1822 70.6246 53.8433C69.9979 51.5045 68.617 49.4377 66.696 47.9636C64.7751 46.4896 62.4214 45.6905 60 45.6904L65 66.5051ZM65 66.5051V67.0824M65 66.5051V67.0824M65 67.0824V83.6904C65 85.0165 64.4732 86.2882 63.5355 87.2259C62.5979 88.1636 61.3261 88.6904 60 88.6904C58.6739 88.6904 57.4021 88.1636 56.4645 87.2259C55.5268 86.2882 55 85.0165 55 83.6904V67.0824V66.5051M65 67.0824L55 66.5051M55 66.5051L54.5 66.2164M55 66.5051L54.5 66.2164M54.5 66.2164C52.4031 65.0056 50.7643 63.1367 49.8377 60.8996C48.9112 58.6625 48.7486 56.1822 49.3754 53.8433C50.0021 51.5045 51.383 49.4377 53.304 47.9636C55.2249 46.4896 57.5786 45.6905 60 45.6904L54.5 66.2164ZM60.7705 8.11718L60.77 8.117C60.2695 7.95496 59.7305 7.95496 59.23 8.117L59.2294 8.11721L9.73278 24.1781C9.73216 24.1783 9.73154 24.1785 9.73092 24.1787C9.22872 24.3401 8.79061 24.6566 8.47959 25.0827C8.16818 25.5093 8.00025 26.0237 8 26.5519V26.5524V56.6904C8 89.9409 28.0059 114.403 59.227 126.182L59.23 126.183C59.7266 126.369 60.2734 126.369 60.77 126.183L60.773 126.182C91.9941 114.403 112 89.9409 112 56.6904L112 26.5464L112 26.543C111.998 26.016 111.83 25.5031 111.519 25.0775C111.209 24.652 110.772 24.3355 110.271 24.1732C110.27 24.1731 110.27 24.1731 110.27 24.173L60.7705 8.11718ZM57.0684 1.46363L57.0686 1.46359C58.974 0.84547 61.026 0.84547 62.9314 1.46359L62.9316 1.46363L112.431 17.5136C112.431 17.5136 112.432 17.5136 112.432 17.5136C114.34 18.1328 116.003 19.3402 117.183 20.9629C118.363 22.5856 118.999 24.5401 119 26.5464C119 26.5465 119 26.5466 119 26.5467V56.6904C119 93.3443 96.7075 120.105 63.2414 132.735C61.1522 133.522 58.8478 133.522 56.7586 132.735C23.2983 120.099 1 93.3441 1 56.6904V26.5464C1 22.4218 3.65885 18.7846 7.56843 17.5136C7.56865 17.5136 7.56887 17.5135 7.56909 17.5134L57.0684 1.46363Z" fill="#BD93F9" stroke="#282A36" stroke-width="2"/>
</svg>
